<mxfile host="app.diagrams.net" modified="2023-11-05T13:15:28.062Z" agent="Mozilla/5.0 (Windows NT 10.0; Win64; x64) AppleWebKit/537.36 (KHTML, like Gecko) Chrome/119.0.0.0 Safari/537.36 Edg/119.0.0.0" etag="ThreFUUf_fJ_SBTLvXkv" version="22.0.8" type="device">
  <diagram id="R2lEEEUBdFMjLlhIrx00" name="Page-1">
    <mxGraphModel dx="2216" dy="1984" grid="1" gridSize="10" guides="1" tooltips="1" connect="1" arrows="1" fold="1" page="1" pageScale="1" pageWidth="850" pageHeight="1100" math="0" shadow="0" extFonts="Permanent Marker^https://fonts.googleapis.com/css?family=Permanent+Marker">
      <root>
        <mxCell id="0" />
        <mxCell id="1" parent="0" />
        <mxCell id="DGdbcrdZKNCwdGrq_Af2-1" value="Product" style="swimlane;fontStyle=2;align=center;verticalAlign=top;childLayout=stackLayout;horizontal=1;startSize=26;horizontalStack=0;resizeParent=1;resizeLast=0;collapsible=1;marginBottom=0;rounded=0;shadow=0;strokeWidth=1;" parent="1" vertex="1">
          <mxGeometry x="90" y="270" width="160" height="422" as="geometry">
            <mxRectangle x="50" y="20" width="160" height="26" as="alternateBounds" />
          </mxGeometry>
        </mxCell>
        <mxCell id="DGdbcrdZKNCwdGrq_Af2-2" value="- product_id: int" style="text;align=left;verticalAlign=top;spacingLeft=4;spacingRight=4;overflow=hidden;rotatable=0;points=[[0,0.5],[1,0.5]];portConstraint=eastwest;" parent="DGdbcrdZKNCwdGrq_Af2-1" vertex="1">
          <mxGeometry y="26" width="160" height="26" as="geometry" />
        </mxCell>
        <mxCell id="DGdbcrdZKNCwdGrq_Af2-3" value="- product_name: String" style="text;align=left;verticalAlign=top;spacingLeft=4;spacingRight=4;overflow=hidden;rotatable=0;points=[[0,0.5],[1,0.5]];portConstraint=eastwest;rounded=0;shadow=0;html=0;" parent="DGdbcrdZKNCwdGrq_Af2-1" vertex="1">
          <mxGeometry y="52" width="160" height="26" as="geometry" />
        </mxCell>
        <mxCell id="DGdbcrdZKNCwdGrq_Af2-5" value="- price: int" style="text;align=left;verticalAlign=top;spacingLeft=4;spacingRight=4;overflow=hidden;rotatable=0;points=[[0,0.5],[1,0.5]];portConstraint=eastwest;rounded=0;shadow=0;html=0;" parent="DGdbcrdZKNCwdGrq_Af2-1" vertex="1">
          <mxGeometry y="78" width="160" height="26" as="geometry" />
        </mxCell>
        <mxCell id="DGdbcrdZKNCwdGrq_Af2-6" value="- stock: Stock" style="text;align=left;verticalAlign=top;spacingLeft=4;spacingRight=4;overflow=hidden;rotatable=0;points=[[0,0.5],[1,0.5]];portConstraint=eastwest;rounded=0;shadow=0;html=0;fontStyle=2" parent="DGdbcrdZKNCwdGrq_Af2-1" vertex="1">
          <mxGeometry y="104" width="160" height="26" as="geometry" />
        </mxCell>
        <mxCell id="HTyEB_lLM2Wh1FDZRcOT-63" value="- images: Images" style="text;align=left;verticalAlign=top;spacingLeft=4;spacingRight=4;overflow=hidden;rotatable=0;points=[[0,0.5],[1,0.5]];portConstraint=eastwest;rounded=0;shadow=0;html=0;fontStyle=2" vertex="1" parent="DGdbcrdZKNCwdGrq_Af2-1">
          <mxGeometry y="130" width="160" height="26" as="geometry" />
        </mxCell>
        <mxCell id="DGdbcrdZKNCwdGrq_Af2-4" value="- category: Category" style="text;align=left;verticalAlign=top;spacingLeft=4;spacingRight=4;overflow=hidden;rotatable=0;points=[[0,0.5],[1,0.5]];portConstraint=eastwest;rounded=0;shadow=0;html=0;fontStyle=2" parent="DGdbcrdZKNCwdGrq_Af2-1" vertex="1">
          <mxGeometry y="156" width="160" height="26" as="geometry" />
        </mxCell>
        <mxCell id="DGdbcrdZKNCwdGrq_Af2-8" value="" style="line;html=1;strokeWidth=1;align=left;verticalAlign=middle;spacingTop=-1;spacingLeft=3;spacingRight=3;rotatable=0;labelPosition=right;points=[];portConstraint=eastwest;" parent="DGdbcrdZKNCwdGrq_Af2-1" vertex="1">
          <mxGeometry y="182" width="160" height="6" as="geometry" />
        </mxCell>
        <mxCell id="HTyEB_lLM2Wh1FDZRcOT-162" value="+ isAvailable()" style="text;align=left;verticalAlign=top;spacingLeft=4;spacingRight=4;overflow=hidden;rotatable=0;points=[[0,0.5],[1,0.5]];portConstraint=eastwest;rounded=0;shadow=0;html=0;fontStyle=0" vertex="1" parent="DGdbcrdZKNCwdGrq_Af2-1">
          <mxGeometry y="188" width="160" height="26" as="geometry" />
        </mxCell>
        <mxCell id="HTyEB_lLM2Wh1FDZRcOT-163" value="+ getStock()" style="text;align=left;verticalAlign=top;spacingLeft=4;spacingRight=4;overflow=hidden;rotatable=0;points=[[0,0.5],[1,0.5]];portConstraint=eastwest;rounded=0;shadow=0;html=0;fontStyle=0" vertex="1" parent="DGdbcrdZKNCwdGrq_Af2-1">
          <mxGeometry y="214" width="160" height="26" as="geometry" />
        </mxCell>
        <mxCell id="HTyEB_lLM2Wh1FDZRcOT-164" value="+ setStock()" style="text;align=left;verticalAlign=top;spacingLeft=4;spacingRight=4;overflow=hidden;rotatable=0;points=[[0,0.5],[1,0.5]];portConstraint=eastwest;rounded=0;shadow=0;html=0;fontStyle=0" vertex="1" parent="DGdbcrdZKNCwdGrq_Af2-1">
          <mxGeometry y="240" width="160" height="26" as="geometry" />
        </mxCell>
        <mxCell id="HTyEB_lLM2Wh1FDZRcOT-187" value="+ updateStock()" style="text;align=left;verticalAlign=top;spacingLeft=4;spacingRight=4;overflow=hidden;rotatable=0;points=[[0,0.5],[1,0.5]];portConstraint=eastwest;rounded=0;shadow=0;html=0;fontStyle=0" vertex="1" parent="DGdbcrdZKNCwdGrq_Af2-1">
          <mxGeometry y="266" width="160" height="26" as="geometry" />
        </mxCell>
        <mxCell id="HTyEB_lLM2Wh1FDZRcOT-166" value="+ getCategories()" style="text;align=left;verticalAlign=top;spacingLeft=4;spacingRight=4;overflow=hidden;rotatable=0;points=[[0,0.5],[1,0.5]];portConstraint=eastwest;rounded=0;shadow=0;html=0;fontStyle=0" vertex="1" parent="DGdbcrdZKNCwdGrq_Af2-1">
          <mxGeometry y="292" width="160" height="26" as="geometry" />
        </mxCell>
        <mxCell id="HTyEB_lLM2Wh1FDZRcOT-167" value="+ setCategories()" style="text;align=left;verticalAlign=top;spacingLeft=4;spacingRight=4;overflow=hidden;rotatable=0;points=[[0,0.5],[1,0.5]];portConstraint=eastwest;rounded=0;shadow=0;html=0;fontStyle=0" vertex="1" parent="DGdbcrdZKNCwdGrq_Af2-1">
          <mxGeometry y="318" width="160" height="26" as="geometry" />
        </mxCell>
        <mxCell id="HTyEB_lLM2Wh1FDZRcOT-189" value="+ updateCategoriesProd()" style="text;align=left;verticalAlign=top;spacingLeft=4;spacingRight=4;overflow=hidden;rotatable=0;points=[[0,0.5],[1,0.5]];portConstraint=eastwest;rounded=0;shadow=0;html=0;fontStyle=0" vertex="1" parent="DGdbcrdZKNCwdGrq_Af2-1">
          <mxGeometry y="344" width="160" height="26" as="geometry" />
        </mxCell>
        <mxCell id="HTyEB_lLM2Wh1FDZRcOT-168" value="+ removeCategories()" style="text;align=left;verticalAlign=top;spacingLeft=4;spacingRight=4;overflow=hidden;rotatable=0;points=[[0,0.5],[1,0.5]];portConstraint=eastwest;rounded=0;shadow=0;html=0;fontStyle=0" vertex="1" parent="DGdbcrdZKNCwdGrq_Af2-1">
          <mxGeometry y="370" width="160" height="26" as="geometry" />
        </mxCell>
        <mxCell id="HTyEB_lLM2Wh1FDZRcOT-178" value="+ getRiviews()" style="text;align=left;verticalAlign=top;spacingLeft=4;spacingRight=4;overflow=hidden;rotatable=0;points=[[0,0.5],[1,0.5]];portConstraint=eastwest;rounded=0;shadow=0;html=0;fontStyle=0" vertex="1" parent="DGdbcrdZKNCwdGrq_Af2-1">
          <mxGeometry y="396" width="160" height="26" as="geometry" />
        </mxCell>
        <mxCell id="DGdbcrdZKNCwdGrq_Af2-19" value="Category" style="swimlane;fontStyle=0;align=center;verticalAlign=top;childLayout=stackLayout;horizontal=1;startSize=26;horizontalStack=0;resizeParent=1;resizeLast=0;collapsible=1;marginBottom=0;rounded=0;shadow=0;strokeWidth=1;" parent="1" vertex="1">
          <mxGeometry x="-240" y="30" width="160" height="100" as="geometry">
            <mxRectangle x="50" y="20" width="160" height="26" as="alternateBounds" />
          </mxGeometry>
        </mxCell>
        <mxCell id="DGdbcrdZKNCwdGrq_Af2-20" value="- category_id: int" style="text;align=left;verticalAlign=top;spacingLeft=4;spacingRight=4;overflow=hidden;rotatable=0;points=[[0,0.5],[1,0.5]];portConstraint=eastwest;" parent="DGdbcrdZKNCwdGrq_Af2-19" vertex="1">
          <mxGeometry y="26" width="160" height="26" as="geometry" />
        </mxCell>
        <mxCell id="DGdbcrdZKNCwdGrq_Af2-21" value="- category_name: String" style="text;align=left;verticalAlign=top;spacingLeft=4;spacingRight=4;overflow=hidden;rotatable=0;points=[[0,0.5],[1,0.5]];portConstraint=eastwest;rounded=0;shadow=0;html=0;" parent="DGdbcrdZKNCwdGrq_Af2-19" vertex="1">
          <mxGeometry y="52" width="160" height="26" as="geometry" />
        </mxCell>
        <mxCell id="DGdbcrdZKNCwdGrq_Af2-25" value="" style="line;html=1;strokeWidth=1;align=left;verticalAlign=middle;spacingTop=-1;spacingLeft=3;spacingRight=3;rotatable=0;labelPosition=right;points=[];portConstraint=eastwest;" parent="DGdbcrdZKNCwdGrq_Af2-19" vertex="1">
          <mxGeometry y="78" width="160" height="6" as="geometry" />
        </mxCell>
        <mxCell id="DGdbcrdZKNCwdGrq_Af2-28" value="Cart" style="swimlane;fontStyle=0;align=center;verticalAlign=top;childLayout=stackLayout;horizontal=1;startSize=26;horizontalStack=0;resizeParent=1;resizeLast=0;collapsible=1;marginBottom=0;rounded=0;shadow=0;strokeWidth=1;" parent="1" vertex="1">
          <mxGeometry x="90" y="-150" width="160" height="292" as="geometry">
            <mxRectangle x="50" y="20" width="160" height="26" as="alternateBounds" />
          </mxGeometry>
        </mxCell>
        <mxCell id="DGdbcrdZKNCwdGrq_Af2-29" value="- cart_id: int" style="text;align=left;verticalAlign=top;spacingLeft=4;spacingRight=4;overflow=hidden;rotatable=0;points=[[0,0.5],[1,0.5]];portConstraint=eastwest;rounded=0;shadow=0;html=0;" parent="DGdbcrdZKNCwdGrq_Af2-28" vertex="1">
          <mxGeometry y="26" width="160" height="26" as="geometry" />
        </mxCell>
        <mxCell id="DGdbcrdZKNCwdGrq_Af2-30" value="- product_id: int" style="text;align=left;verticalAlign=top;spacingLeft=4;spacingRight=4;overflow=hidden;rotatable=0;points=[[0,0.5],[1,0.5]];portConstraint=eastwest;rounded=0;shadow=0;html=0;" parent="DGdbcrdZKNCwdGrq_Af2-28" vertex="1">
          <mxGeometry y="52" width="160" height="26" as="geometry" />
        </mxCell>
        <mxCell id="HTyEB_lLM2Wh1FDZRcOT-157" value="- user_id: String" style="text;align=left;verticalAlign=top;spacingLeft=4;spacingRight=4;overflow=hidden;rotatable=0;points=[[0,0.5],[1,0.5]];portConstraint=eastwest;rounded=0;shadow=0;html=0;" vertex="1" parent="DGdbcrdZKNCwdGrq_Af2-28">
          <mxGeometry y="78" width="160" height="26" as="geometry" />
        </mxCell>
        <mxCell id="DGdbcrdZKNCwdGrq_Af2-31" value="- quantity: int" style="text;align=left;verticalAlign=top;spacingLeft=4;spacingRight=4;overflow=hidden;rotatable=0;points=[[0,0.5],[1,0.5]];portConstraint=eastwest;rounded=0;shadow=0;html=0;" parent="DGdbcrdZKNCwdGrq_Af2-28" vertex="1">
          <mxGeometry y="104" width="160" height="26" as="geometry" />
        </mxCell>
        <mxCell id="DGdbcrdZKNCwdGrq_Af2-32" value="- createAt: Timestamp" style="text;align=left;verticalAlign=top;spacingLeft=4;spacingRight=4;overflow=hidden;rotatable=0;points=[[0,0.5],[1,0.5]];portConstraint=eastwest;rounded=0;shadow=0;html=0;" parent="DGdbcrdZKNCwdGrq_Af2-28" vertex="1">
          <mxGeometry y="130" width="160" height="26" as="geometry" />
        </mxCell>
        <mxCell id="DGdbcrdZKNCwdGrq_Af2-33" value="- updateAt: Timestamp" style="text;align=left;verticalAlign=top;spacingLeft=4;spacingRight=4;overflow=hidden;rotatable=0;points=[[0,0.5],[1,0.5]];portConstraint=eastwest;rounded=0;shadow=0;html=0;" parent="DGdbcrdZKNCwdGrq_Af2-28" vertex="1">
          <mxGeometry y="156" width="160" height="26" as="geometry" />
        </mxCell>
        <mxCell id="DGdbcrdZKNCwdGrq_Af2-34" value="" style="line;html=1;strokeWidth=1;align=left;verticalAlign=middle;spacingTop=-1;spacingLeft=3;spacingRight=3;rotatable=0;labelPosition=right;points=[];portConstraint=eastwest;" parent="DGdbcrdZKNCwdGrq_Af2-28" vertex="1">
          <mxGeometry y="182" width="160" height="6" as="geometry" />
        </mxCell>
        <mxCell id="DGdbcrdZKNCwdGrq_Af2-153" value="+ checkout()" style="text;align=left;verticalAlign=top;spacingLeft=4;spacingRight=4;overflow=hidden;rotatable=0;points=[[0,0.5],[1,0.5]];portConstraint=eastwest;rounded=0;shadow=0;html=0;" parent="DGdbcrdZKNCwdGrq_Af2-28" vertex="1">
          <mxGeometry y="188" width="160" height="26" as="geometry" />
        </mxCell>
        <mxCell id="DGdbcrdZKNCwdGrq_Af2-166" value="+ saveCart()" style="text;align=left;verticalAlign=top;spacingLeft=4;spacingRight=4;overflow=hidden;rotatable=0;points=[[0,0.5],[1,0.5]];portConstraint=eastwest;rounded=0;shadow=0;html=0;" parent="DGdbcrdZKNCwdGrq_Af2-28" vertex="1">
          <mxGeometry y="214" width="160" height="26" as="geometry" />
        </mxCell>
        <mxCell id="HTyEB_lLM2Wh1FDZRcOT-169" value="+ loadCart()" style="text;align=left;verticalAlign=top;spacingLeft=4;spacingRight=4;overflow=hidden;rotatable=0;points=[[0,0.5],[1,0.5]];portConstraint=eastwest;rounded=0;shadow=0;html=0;" vertex="1" parent="DGdbcrdZKNCwdGrq_Af2-28">
          <mxGeometry y="240" width="160" height="26" as="geometry" />
        </mxCell>
        <mxCell id="HTyEB_lLM2Wh1FDZRcOT-171" value="+ getTotalPrice()" style="text;align=left;verticalAlign=top;spacingLeft=4;spacingRight=4;overflow=hidden;rotatable=0;points=[[0,0.5],[1,0.5]];portConstraint=eastwest;rounded=0;shadow=0;html=0;" vertex="1" parent="DGdbcrdZKNCwdGrq_Af2-28">
          <mxGeometry y="266" width="160" height="26" as="geometry" />
        </mxCell>
        <mxCell id="DGdbcrdZKNCwdGrq_Af2-37" value="Order" style="swimlane;fontStyle=0;align=center;verticalAlign=top;childLayout=stackLayout;horizontal=1;startSize=26;horizontalStack=0;resizeParent=1;resizeLast=0;collapsible=1;marginBottom=0;rounded=0;shadow=0;strokeWidth=1;" parent="1" vertex="1">
          <mxGeometry x="425" y="270" width="160" height="240" as="geometry">
            <mxRectangle x="50" y="20" width="160" height="26" as="alternateBounds" />
          </mxGeometry>
        </mxCell>
        <mxCell id="DGdbcrdZKNCwdGrq_Af2-38" value="- order_id: int" style="text;align=left;verticalAlign=top;spacingLeft=4;spacingRight=4;overflow=hidden;rotatable=0;points=[[0,0.5],[1,0.5]];portConstraint=eastwest;" parent="DGdbcrdZKNCwdGrq_Af2-37" vertex="1">
          <mxGeometry y="26" width="160" height="26" as="geometry" />
        </mxCell>
        <mxCell id="DGdbcrdZKNCwdGrq_Af2-39" value="- Order_details: int" style="text;align=left;verticalAlign=top;spacingLeft=4;spacingRight=4;overflow=hidden;rotatable=0;points=[[0,0.5],[1,0.5]];portConstraint=eastwest;" parent="DGdbcrdZKNCwdGrq_Af2-37" vertex="1">
          <mxGeometry y="52" width="160" height="26" as="geometry" />
        </mxCell>
        <mxCell id="DGdbcrdZKNCwdGrq_Af2-40" value="- product_id: Product" style="text;align=left;verticalAlign=top;spacingLeft=4;spacingRight=4;overflow=hidden;rotatable=0;points=[[0,0.5],[1,0.5]];portConstraint=eastwest;rounded=0;shadow=0;html=0;" parent="DGdbcrdZKNCwdGrq_Af2-37" vertex="1">
          <mxGeometry y="78" width="160" height="26" as="geometry" />
        </mxCell>
        <mxCell id="DGdbcrdZKNCwdGrq_Af2-41" value="- status_order: int" style="text;align=left;verticalAlign=top;spacingLeft=4;spacingRight=4;overflow=hidden;rotatable=0;points=[[0,0.5],[1,0.5]];portConstraint=eastwest;rounded=0;shadow=0;html=0;" parent="DGdbcrdZKNCwdGrq_Af2-37" vertex="1">
          <mxGeometry y="104" width="160" height="26" as="geometry" />
        </mxCell>
        <mxCell id="DGdbcrdZKNCwdGrq_Af2-42" value="- createAt: Timestamp" style="text;align=left;verticalAlign=top;spacingLeft=4;spacingRight=4;overflow=hidden;rotatable=0;points=[[0,0.5],[1,0.5]];portConstraint=eastwest;rounded=0;shadow=0;html=0;" parent="DGdbcrdZKNCwdGrq_Af2-37" vertex="1">
          <mxGeometry y="130" width="160" height="26" as="geometry" />
        </mxCell>
        <mxCell id="DGdbcrdZKNCwdGrq_Af2-43" value="- updateAt: Timestamp" style="text;align=left;verticalAlign=top;spacingLeft=4;spacingRight=4;overflow=hidden;rotatable=0;points=[[0,0.5],[1,0.5]];portConstraint=eastwest;rounded=0;shadow=0;html=0;" parent="DGdbcrdZKNCwdGrq_Af2-37" vertex="1">
          <mxGeometry y="156" width="160" height="26" as="geometry" />
        </mxCell>
        <mxCell id="DGdbcrdZKNCwdGrq_Af2-44" value="" style="line;html=1;strokeWidth=1;align=left;verticalAlign=middle;spacingTop=-1;spacingLeft=3;spacingRight=3;rotatable=0;labelPosition=right;points=[];portConstraint=eastwest;" parent="DGdbcrdZKNCwdGrq_Af2-37" vertex="1">
          <mxGeometry y="182" width="160" height="6" as="geometry" />
        </mxCell>
        <mxCell id="HTyEB_lLM2Wh1FDZRcOT-176" value="+ placeOrder()" style="text;align=left;verticalAlign=top;spacingLeft=4;spacingRight=4;overflow=hidden;rotatable=0;points=[[0,0.5],[1,0.5]];portConstraint=eastwest;rounded=0;shadow=0;html=0;" vertex="1" parent="DGdbcrdZKNCwdGrq_Af2-37">
          <mxGeometry y="188" width="160" height="26" as="geometry" />
        </mxCell>
        <mxCell id="HTyEB_lLM2Wh1FDZRcOT-177" value="+ cancelOrder()" style="text;align=left;verticalAlign=top;spacingLeft=4;spacingRight=4;overflow=hidden;rotatable=0;points=[[0,0.5],[1,0.5]];portConstraint=eastwest;rounded=0;shadow=0;html=0;" vertex="1" parent="DGdbcrdZKNCwdGrq_Af2-37">
          <mxGeometry y="214" width="160" height="26" as="geometry" />
        </mxCell>
        <mxCell id="DGdbcrdZKNCwdGrq_Af2-59" value="Payment" style="swimlane;fontStyle=0;align=center;verticalAlign=top;childLayout=stackLayout;horizontal=1;startSize=26;horizontalStack=0;resizeParent=1;resizeLast=0;collapsible=1;marginBottom=0;rounded=0;shadow=0;strokeWidth=1;" parent="1" vertex="1">
          <mxGeometry x="980" y="270" width="160" height="220" as="geometry">
            <mxRectangle x="50" y="20" width="160" height="26" as="alternateBounds" />
          </mxGeometry>
        </mxCell>
        <mxCell id="DGdbcrdZKNCwdGrq_Af2-60" value="- payment_id: int" style="text;align=left;verticalAlign=top;spacingLeft=4;spacingRight=4;overflow=hidden;rotatable=0;points=[[0,0.5],[1,0.5]];portConstraint=eastwest;rounded=0;shadow=0;html=0;" parent="DGdbcrdZKNCwdGrq_Af2-59" vertex="1">
          <mxGeometry y="26" width="160" height="26" as="geometry" />
        </mxCell>
        <mxCell id="DGdbcrdZKNCwdGrq_Af2-61" value="- payment_total: double" style="text;align=left;verticalAlign=top;spacingLeft=4;spacingRight=4;overflow=hidden;rotatable=0;points=[[0,0.5],[1,0.5]];portConstraint=eastwest;rounded=0;shadow=0;html=0;" parent="DGdbcrdZKNCwdGrq_Af2-59" vertex="1">
          <mxGeometry y="52" width="160" height="26" as="geometry" />
        </mxCell>
        <mxCell id="DGdbcrdZKNCwdGrq_Af2-62" value="- payment_metode: int" style="text;align=left;verticalAlign=top;spacingLeft=4;spacingRight=4;overflow=hidden;rotatable=0;points=[[0,0.5],[1,0.5]];portConstraint=eastwest;rounded=0;shadow=0;html=0;" parent="DGdbcrdZKNCwdGrq_Af2-59" vertex="1">
          <mxGeometry y="78" width="160" height="26" as="geometry" />
        </mxCell>
        <mxCell id="DGdbcrdZKNCwdGrq_Af2-63" value="- payment_status: booolean" style="text;align=left;verticalAlign=top;spacingLeft=4;spacingRight=4;overflow=hidden;rotatable=0;points=[[0,0.5],[1,0.5]];portConstraint=eastwest;rounded=0;shadow=0;html=0;" parent="DGdbcrdZKNCwdGrq_Af2-59" vertex="1">
          <mxGeometry y="104" width="160" height="26" as="geometry" />
        </mxCell>
        <mxCell id="DGdbcrdZKNCwdGrq_Af2-64" value="- createAt: Timestamp" style="text;align=left;verticalAlign=top;spacingLeft=4;spacingRight=4;overflow=hidden;rotatable=0;points=[[0,0.5],[1,0.5]];portConstraint=eastwest;rounded=0;shadow=0;html=0;" parent="DGdbcrdZKNCwdGrq_Af2-59" vertex="1">
          <mxGeometry y="130" width="160" height="26" as="geometry" />
        </mxCell>
        <mxCell id="DGdbcrdZKNCwdGrq_Af2-65" value="- updateAt: Timestamp" style="text;align=left;verticalAlign=top;spacingLeft=4;spacingRight=4;overflow=hidden;rotatable=0;points=[[0,0.5],[1,0.5]];portConstraint=eastwest;rounded=0;shadow=0;html=0;" parent="DGdbcrdZKNCwdGrq_Af2-59" vertex="1">
          <mxGeometry y="156" width="160" height="26" as="geometry" />
        </mxCell>
        <mxCell id="DGdbcrdZKNCwdGrq_Af2-66" value="" style="line;html=1;strokeWidth=1;align=left;verticalAlign=middle;spacingTop=-1;spacingLeft=3;spacingRight=3;rotatable=0;labelPosition=right;points=[];portConstraint=eastwest;" parent="DGdbcrdZKNCwdGrq_Af2-59" vertex="1">
          <mxGeometry y="182" width="160" height="6" as="geometry" />
        </mxCell>
        <mxCell id="DGdbcrdZKNCwdGrq_Af2-164" value="+ processPayment()" style="text;align=left;verticalAlign=top;spacingLeft=4;spacingRight=4;overflow=hidden;rotatable=0;points=[[0,0.5],[1,0.5]];portConstraint=eastwest;rounded=0;shadow=0;html=0;" parent="DGdbcrdZKNCwdGrq_Af2-59" vertex="1">
          <mxGeometry y="188" width="160" height="26" as="geometry" />
        </mxCell>
        <mxCell id="DGdbcrdZKNCwdGrq_Af2-72" value="Chat" style="swimlane;fontStyle=0;align=center;verticalAlign=top;childLayout=stackLayout;horizontal=1;startSize=26;horizontalStack=0;resizeParent=1;resizeLast=0;collapsible=1;marginBottom=0;rounded=0;shadow=0;strokeWidth=1;" parent="1" vertex="1">
          <mxGeometry x="420" y="706" width="160" height="162" as="geometry">
            <mxRectangle x="50" y="20" width="160" height="26" as="alternateBounds" />
          </mxGeometry>
        </mxCell>
        <mxCell id="DGdbcrdZKNCwdGrq_Af2-74" value="- chat_id" style="text;align=left;verticalAlign=top;spacingLeft=4;spacingRight=4;overflow=hidden;rotatable=0;points=[[0,0.5],[1,0.5]];portConstraint=eastwest;rounded=0;shadow=0;html=0;" parent="DGdbcrdZKNCwdGrq_Af2-72" vertex="1">
          <mxGeometry y="26" width="160" height="26" as="geometry" />
        </mxCell>
        <mxCell id="DGdbcrdZKNCwdGrq_Af2-75" value="- user_id: int" style="text;align=left;verticalAlign=top;spacingLeft=4;spacingRight=4;overflow=hidden;rotatable=0;points=[[0,0.5],[1,0.5]];portConstraint=eastwest;rounded=0;shadow=0;html=0;" parent="DGdbcrdZKNCwdGrq_Af2-72" vertex="1">
          <mxGeometry y="52" width="160" height="26" as="geometry" />
        </mxCell>
        <mxCell id="DGdbcrdZKNCwdGrq_Af2-76" value="- createAt: Timestamp" style="text;align=left;verticalAlign=top;spacingLeft=4;spacingRight=4;overflow=hidden;rotatable=0;points=[[0,0.5],[1,0.5]];portConstraint=eastwest;rounded=0;shadow=0;html=0;" parent="DGdbcrdZKNCwdGrq_Af2-72" vertex="1">
          <mxGeometry y="78" width="160" height="26" as="geometry" />
        </mxCell>
        <mxCell id="DGdbcrdZKNCwdGrq_Af2-78" value="" style="line;html=1;strokeWidth=1;align=left;verticalAlign=middle;spacingTop=-1;spacingLeft=3;spacingRight=3;rotatable=0;labelPosition=right;points=[];portConstraint=eastwest;" parent="DGdbcrdZKNCwdGrq_Af2-72" vertex="1">
          <mxGeometry y="104" width="160" height="6" as="geometry" />
        </mxCell>
        <mxCell id="DGdbcrdZKNCwdGrq_Af2-79" value="+ sendMessage()" style="text;align=left;verticalAlign=top;spacingLeft=4;spacingRight=4;overflow=hidden;rotatable=0;points=[[0,0.5],[1,0.5]];portConstraint=eastwest;rounded=0;shadow=0;html=0;" parent="DGdbcrdZKNCwdGrq_Af2-72" vertex="1">
          <mxGeometry y="110" width="160" height="26" as="geometry" />
        </mxCell>
        <mxCell id="HTyEB_lLM2Wh1FDZRcOT-173" value="+ History()" style="text;align=left;verticalAlign=top;spacingLeft=4;spacingRight=4;overflow=hidden;rotatable=0;points=[[0,0.5],[1,0.5]];portConstraint=eastwest;rounded=0;shadow=0;html=0;" vertex="1" parent="DGdbcrdZKNCwdGrq_Af2-72">
          <mxGeometry y="136" width="160" height="26" as="geometry" />
        </mxCell>
        <mxCell id="DGdbcrdZKNCwdGrq_Af2-87" value="User" style="swimlane;fontStyle=2;align=center;verticalAlign=top;childLayout=stackLayout;horizontal=1;startSize=26;horizontalStack=0;resizeParent=1;resizeLast=0;collapsible=1;marginBottom=0;rounded=0;shadow=0;strokeWidth=1;" parent="1" vertex="1">
          <mxGeometry x="690" y="700" width="160" height="266" as="geometry">
            <mxRectangle x="50" y="20" width="160" height="26" as="alternateBounds" />
          </mxGeometry>
        </mxCell>
        <mxCell id="DGdbcrdZKNCwdGrq_Af2-88" value="- user_id: int" style="text;align=left;verticalAlign=top;spacingLeft=4;spacingRight=4;overflow=hidden;rotatable=0;points=[[0,0.5],[1,0.5]];portConstraint=eastwest;rounded=0;shadow=0;html=0;" parent="DGdbcrdZKNCwdGrq_Af2-87" vertex="1">
          <mxGeometry y="26" width="160" height="26" as="geometry" />
        </mxCell>
        <mxCell id="DGdbcrdZKNCwdGrq_Af2-89" value="- user_name: String" style="text;align=left;verticalAlign=top;spacingLeft=4;spacingRight=4;overflow=hidden;rotatable=0;points=[[0,0.5],[1,0.5]];portConstraint=eastwest;rounded=0;shadow=0;html=0;" parent="DGdbcrdZKNCwdGrq_Af2-87" vertex="1">
          <mxGeometry y="52" width="160" height="26" as="geometry" />
        </mxCell>
        <mxCell id="DGdbcrdZKNCwdGrq_Af2-90" value="- user_username: String" style="text;align=left;verticalAlign=top;spacingLeft=4;spacingRight=4;overflow=hidden;rotatable=0;points=[[0,0.5],[1,0.5]];portConstraint=eastwest;rounded=0;shadow=0;html=0;" parent="DGdbcrdZKNCwdGrq_Af2-87" vertex="1">
          <mxGeometry y="78" width="160" height="26" as="geometry" />
        </mxCell>
        <mxCell id="DGdbcrdZKNCwdGrq_Af2-91" value="- user_password: String" style="text;align=left;verticalAlign=top;spacingLeft=4;spacingRight=4;overflow=hidden;rotatable=0;points=[[0,0.5],[1,0.5]];portConstraint=eastwest;rounded=0;shadow=0;html=0;" parent="DGdbcrdZKNCwdGrq_Af2-87" vertex="1">
          <mxGeometry y="104" width="160" height="26" as="geometry" />
        </mxCell>
        <mxCell id="DGdbcrdZKNCwdGrq_Af2-92" value="- roles_id: int" style="text;align=left;verticalAlign=top;spacingLeft=4;spacingRight=4;overflow=hidden;rotatable=0;points=[[0,0.5],[1,0.5]];portConstraint=eastwest;rounded=0;shadow=0;html=0;" parent="DGdbcrdZKNCwdGrq_Af2-87" vertex="1">
          <mxGeometry y="130" width="160" height="26" as="geometry" />
        </mxCell>
        <mxCell id="HTyEB_lLM2Wh1FDZRcOT-160" value="- address : UserAddress" style="text;align=left;verticalAlign=top;spacingLeft=4;spacingRight=4;overflow=hidden;rotatable=0;points=[[0,0.5],[1,0.5]];portConstraint=eastwest;rounded=0;shadow=0;html=0;fontStyle=2" vertex="1" parent="DGdbcrdZKNCwdGrq_Af2-87">
          <mxGeometry y="156" width="160" height="26" as="geometry" />
        </mxCell>
        <mxCell id="DGdbcrdZKNCwdGrq_Af2-95" value="" style="line;html=1;strokeWidth=1;align=left;verticalAlign=middle;spacingTop=-1;spacingLeft=3;spacingRight=3;rotatable=0;labelPosition=right;points=[];portConstraint=eastwest;" parent="DGdbcrdZKNCwdGrq_Af2-87" vertex="1">
          <mxGeometry y="182" width="160" height="6" as="geometry" />
        </mxCell>
        <mxCell id="DGdbcrdZKNCwdGrq_Af2-150" value="+ Login()&#xa;" style="text;align=left;verticalAlign=top;spacingLeft=4;spacingRight=4;overflow=hidden;rotatable=0;points=[[0,0.5],[1,0.5]];portConstraint=eastwest;rounded=0;shadow=0;html=0;" parent="DGdbcrdZKNCwdGrq_Af2-87" vertex="1">
          <mxGeometry y="188" width="160" height="26" as="geometry" />
        </mxCell>
        <mxCell id="DGdbcrdZKNCwdGrq_Af2-151" value="+ Logout()&#xa;" style="text;align=left;verticalAlign=top;spacingLeft=4;spacingRight=4;overflow=hidden;rotatable=0;points=[[0,0.5],[1,0.5]];portConstraint=eastwest;rounded=0;shadow=0;html=0;" parent="DGdbcrdZKNCwdGrq_Af2-87" vertex="1">
          <mxGeometry y="214" width="160" height="26" as="geometry" />
        </mxCell>
        <mxCell id="HTyEB_lLM2Wh1FDZRcOT-159" value="+ Register()&#xa;" style="text;align=left;verticalAlign=top;spacingLeft=4;spacingRight=4;overflow=hidden;rotatable=0;points=[[0,0.5],[1,0.5]];portConstraint=eastwest;rounded=0;shadow=0;html=0;" vertex="1" parent="DGdbcrdZKNCwdGrq_Af2-87">
          <mxGeometry y="240" width="160" height="26" as="geometry" />
        </mxCell>
        <mxCell id="DGdbcrdZKNCwdGrq_Af2-109" value="Order_details" style="swimlane;fontStyle=2;align=center;verticalAlign=top;childLayout=stackLayout;horizontal=1;startSize=26;horizontalStack=0;resizeParent=1;resizeLast=0;collapsible=1;marginBottom=0;rounded=0;shadow=0;strokeWidth=1;" parent="1" vertex="1">
          <mxGeometry x="690" y="270" width="160" height="214" as="geometry">
            <mxRectangle x="50" y="20" width="160" height="26" as="alternateBounds" />
          </mxGeometry>
        </mxCell>
        <mxCell id="DGdbcrdZKNCwdGrq_Af2-110" value="- order_details_id: int" style="text;align=left;verticalAlign=top;spacingLeft=4;spacingRight=4;overflow=hidden;rotatable=0;points=[[0,0.5],[1,0.5]];portConstraint=eastwest;" parent="DGdbcrdZKNCwdGrq_Af2-109" vertex="1">
          <mxGeometry y="26" width="160" height="26" as="geometry" />
        </mxCell>
        <mxCell id="DGdbcrdZKNCwdGrq_Af2-111" value="- user_id" style="text;align=left;verticalAlign=top;spacingLeft=4;spacingRight=4;overflow=hidden;rotatable=0;points=[[0,0.5],[1,0.5]];portConstraint=eastwest;rounded=0;shadow=0;html=0;" parent="DGdbcrdZKNCwdGrq_Af2-109" vertex="1">
          <mxGeometry y="52" width="160" height="26" as="geometry" />
        </mxCell>
        <mxCell id="DGdbcrdZKNCwdGrq_Af2-113" value="- payment_id: Payment" style="text;align=left;verticalAlign=top;spacingLeft=4;spacingRight=4;overflow=hidden;rotatable=0;points=[[0,0.5],[1,0.5]];portConstraint=eastwest;rounded=0;shadow=0;html=0;" parent="DGdbcrdZKNCwdGrq_Af2-109" vertex="1">
          <mxGeometry y="78" width="160" height="26" as="geometry" />
        </mxCell>
        <mxCell id="DGdbcrdZKNCwdGrq_Af2-114" value="- notes: String" style="text;align=left;verticalAlign=top;spacingLeft=4;spacingRight=4;overflow=hidden;rotatable=0;points=[[0,0.5],[1,0.5]];portConstraint=eastwest;rounded=0;shadow=0;html=0;" parent="DGdbcrdZKNCwdGrq_Af2-109" vertex="1">
          <mxGeometry y="104" width="160" height="26" as="geometry" />
        </mxCell>
        <mxCell id="DGdbcrdZKNCwdGrq_Af2-115" value="- createAt: Timestamp" style="text;align=left;verticalAlign=top;spacingLeft=4;spacingRight=4;overflow=hidden;rotatable=0;points=[[0,0.5],[1,0.5]];portConstraint=eastwest;rounded=0;shadow=0;html=0;" parent="DGdbcrdZKNCwdGrq_Af2-109" vertex="1">
          <mxGeometry y="130" width="160" height="26" as="geometry" />
        </mxCell>
        <mxCell id="DGdbcrdZKNCwdGrq_Af2-116" value="- updateAt: Timestamp" style="text;align=left;verticalAlign=top;spacingLeft=4;spacingRight=4;overflow=hidden;rotatable=0;points=[[0,0.5],[1,0.5]];portConstraint=eastwest;rounded=0;shadow=0;html=0;" parent="DGdbcrdZKNCwdGrq_Af2-109" vertex="1">
          <mxGeometry y="156" width="160" height="26" as="geometry" />
        </mxCell>
        <mxCell id="DGdbcrdZKNCwdGrq_Af2-117" value="" style="line;html=1;strokeWidth=1;align=left;verticalAlign=middle;spacingTop=-1;spacingLeft=3;spacingRight=3;rotatable=0;labelPosition=right;points=[];portConstraint=eastwest;" parent="DGdbcrdZKNCwdGrq_Af2-109" vertex="1">
          <mxGeometry y="182" width="160" height="6" as="geometry" />
        </mxCell>
        <mxCell id="HTyEB_lLM2Wh1FDZRcOT-174" value="+ calculateTotalPrice()" style="text;align=left;verticalAlign=top;spacingLeft=4;spacingRight=4;overflow=hidden;rotatable=0;points=[[0,0.5],[1,0.5]];portConstraint=eastwest;rounded=0;shadow=0;html=0;" vertex="1" parent="DGdbcrdZKNCwdGrq_Af2-109">
          <mxGeometry y="188" width="160" height="26" as="geometry" />
        </mxCell>
        <mxCell id="DGdbcrdZKNCwdGrq_Af2-140" value="Roles" style="swimlane;fontStyle=0;align=center;verticalAlign=top;childLayout=stackLayout;horizontal=1;startSize=26;horizontalStack=0;resizeParent=1;resizeLast=0;collapsible=1;marginBottom=0;rounded=0;shadow=0;strokeWidth=1;" parent="1" vertex="1">
          <mxGeometry x="950" y="730" width="160" height="84" as="geometry">
            <mxRectangle x="50" y="20" width="160" height="26" as="alternateBounds" />
          </mxGeometry>
        </mxCell>
        <mxCell id="DGdbcrdZKNCwdGrq_Af2-141" value="- roles_id: int" style="text;align=left;verticalAlign=top;spacingLeft=4;spacingRight=4;overflow=hidden;rotatable=0;points=[[0,0.5],[1,0.5]];portConstraint=eastwest;rounded=0;shadow=0;html=0;" parent="DGdbcrdZKNCwdGrq_Af2-140" vertex="1">
          <mxGeometry y="26" width="160" height="26" as="geometry" />
        </mxCell>
        <mxCell id="DGdbcrdZKNCwdGrq_Af2-142" value="- roles_name: String" style="text;align=left;verticalAlign=top;spacingLeft=4;spacingRight=4;overflow=hidden;rotatable=0;points=[[0,0.5],[1,0.5]];portConstraint=eastwest;rounded=0;shadow=0;html=0;" parent="DGdbcrdZKNCwdGrq_Af2-140" vertex="1">
          <mxGeometry y="52" width="160" height="26" as="geometry" />
        </mxCell>
        <mxCell id="DGdbcrdZKNCwdGrq_Af2-145" value="" style="line;html=1;strokeWidth=1;align=left;verticalAlign=middle;spacingTop=-1;spacingLeft=3;spacingRight=3;rotatable=0;labelPosition=right;points=[];portConstraint=eastwest;" parent="DGdbcrdZKNCwdGrq_Af2-140" vertex="1">
          <mxGeometry y="78" width="160" height="6" as="geometry" />
        </mxCell>
        <mxCell id="HTyEB_lLM2Wh1FDZRcOT-13" value="" style="endArrow=none;html=1;rounded=0;fontSize=12;startSize=8;endSize=8;curved=1;entryX=0.5;entryY=1;entryDx=0;entryDy=0;" edge="1" parent="1" source="DGdbcrdZKNCwdGrq_Af2-1" target="DGdbcrdZKNCwdGrq_Af2-28">
          <mxGeometry width="50" height="50" relative="1" as="geometry">
            <mxPoint x="620" y="390" as="sourcePoint" />
            <mxPoint x="670" y="340" as="targetPoint" />
          </mxGeometry>
        </mxCell>
        <mxCell id="HTyEB_lLM2Wh1FDZRcOT-15" value="1" style="edgeLabel;html=1;align=center;verticalAlign=middle;resizable=0;points=[];fontSize=16;" vertex="1" connectable="0" parent="HTyEB_lLM2Wh1FDZRcOT-13">
          <mxGeometry x="0.8213" y="2" relative="1" as="geometry">
            <mxPoint as="offset" />
          </mxGeometry>
        </mxCell>
        <mxCell id="HTyEB_lLM2Wh1FDZRcOT-16" value="*" style="edgeLabel;html=1;align=center;verticalAlign=middle;resizable=0;points=[];fontSize=16;" vertex="1" connectable="0" parent="HTyEB_lLM2Wh1FDZRcOT-13">
          <mxGeometry x="-0.9019" relative="1" as="geometry">
            <mxPoint as="offset" />
          </mxGeometry>
        </mxCell>
        <mxCell id="HTyEB_lLM2Wh1FDZRcOT-17" value="User Address" style="swimlane;fontStyle=0;align=center;verticalAlign=top;childLayout=stackLayout;horizontal=1;startSize=26;horizontalStack=0;resizeParent=1;resizeLast=0;collapsible=1;marginBottom=0;rounded=0;shadow=0;strokeWidth=1;" vertex="1" parent="1">
          <mxGeometry x="690" y="1070" width="160" height="170" as="geometry">
            <mxRectangle x="50" y="20" width="160" height="26" as="alternateBounds" />
          </mxGeometry>
        </mxCell>
        <mxCell id="HTyEB_lLM2Wh1FDZRcOT-18" value="- Address : String" style="text;align=left;verticalAlign=top;spacingLeft=4;spacingRight=4;overflow=hidden;rotatable=0;points=[[0,0.5],[1,0.5]];portConstraint=eastwest;rounded=0;shadow=0;html=0;" vertex="1" parent="HTyEB_lLM2Wh1FDZRcOT-17">
          <mxGeometry y="26" width="160" height="26" as="geometry" />
        </mxCell>
        <mxCell id="HTyEB_lLM2Wh1FDZRcOT-19" value="- City : String" style="text;align=left;verticalAlign=top;spacingLeft=4;spacingRight=4;overflow=hidden;rotatable=0;points=[[0,0.5],[1,0.5]];portConstraint=eastwest;rounded=0;shadow=0;html=0;" vertex="1" parent="HTyEB_lLM2Wh1FDZRcOT-17">
          <mxGeometry y="52" width="160" height="26" as="geometry" />
        </mxCell>
        <mxCell id="HTyEB_lLM2Wh1FDZRcOT-25" value="- Province : String" style="text;align=left;verticalAlign=top;spacingLeft=4;spacingRight=4;overflow=hidden;rotatable=0;points=[[0,0.5],[1,0.5]];portConstraint=eastwest;rounded=0;shadow=0;html=0;" vertex="1" parent="HTyEB_lLM2Wh1FDZRcOT-17">
          <mxGeometry y="78" width="160" height="26" as="geometry" />
        </mxCell>
        <mxCell id="HTyEB_lLM2Wh1FDZRcOT-26" value="- Postal_code : char[6]" style="text;align=left;verticalAlign=top;spacingLeft=4;spacingRight=4;overflow=hidden;rotatable=0;points=[[0,0.5],[1,0.5]];portConstraint=eastwest;rounded=0;shadow=0;html=0;" vertex="1" parent="HTyEB_lLM2Wh1FDZRcOT-17">
          <mxGeometry y="104" width="160" height="26" as="geometry" />
        </mxCell>
        <mxCell id="HTyEB_lLM2Wh1FDZRcOT-27" value="- phone_number : char[12]" style="text;align=left;verticalAlign=top;spacingLeft=4;spacingRight=4;overflow=hidden;rotatable=0;points=[[0,0.5],[1,0.5]];portConstraint=eastwest;rounded=0;shadow=0;html=0;" vertex="1" parent="HTyEB_lLM2Wh1FDZRcOT-17">
          <mxGeometry y="130" width="160" height="26" as="geometry" />
        </mxCell>
        <mxCell id="HTyEB_lLM2Wh1FDZRcOT-20" value="" style="line;html=1;strokeWidth=1;align=left;verticalAlign=middle;spacingTop=-1;spacingLeft=3;spacingRight=3;rotatable=0;labelPosition=right;points=[];portConstraint=eastwest;" vertex="1" parent="HTyEB_lLM2Wh1FDZRcOT-17">
          <mxGeometry y="156" width="160" height="6" as="geometry" />
        </mxCell>
        <mxCell id="HTyEB_lLM2Wh1FDZRcOT-28" value="" style="endArrow=classic;html=1;rounded=0;fontSize=12;startSize=8;endSize=8;curved=1;exitX=0.5;exitY=0;exitDx=0;exitDy=0;entryX=0.487;entryY=0.958;entryDx=0;entryDy=0;entryPerimeter=0;" edge="1" parent="1" source="HTyEB_lLM2Wh1FDZRcOT-17" target="HTyEB_lLM2Wh1FDZRcOT-159">
          <mxGeometry width="50" height="50" relative="1" as="geometry">
            <mxPoint x="720" y="994" as="sourcePoint" />
            <mxPoint x="740" y="924" as="targetPoint" />
          </mxGeometry>
        </mxCell>
        <mxCell id="HTyEB_lLM2Wh1FDZRcOT-30" value="1" style="edgeLabel;html=1;align=center;verticalAlign=middle;resizable=0;points=[];fontSize=16;" vertex="1" connectable="0" parent="HTyEB_lLM2Wh1FDZRcOT-28">
          <mxGeometry x="0.6859" y="-1" relative="1" as="geometry">
            <mxPoint x="9" as="offset" />
          </mxGeometry>
        </mxCell>
        <mxCell id="HTyEB_lLM2Wh1FDZRcOT-31" value="2" style="edgeLabel;html=1;align=center;verticalAlign=middle;resizable=0;points=[];fontSize=16;" vertex="1" connectable="0" parent="HTyEB_lLM2Wh1FDZRcOT-28">
          <mxGeometry x="0.6859" y="-1" relative="1" as="geometry">
            <mxPoint x="11" y="52" as="offset" />
          </mxGeometry>
        </mxCell>
        <mxCell id="HTyEB_lLM2Wh1FDZRcOT-89" value="inheritance" style="edgeLabel;html=1;align=center;verticalAlign=middle;resizable=0;points=[];fontSize=16;" vertex="1" connectable="0" parent="HTyEB_lLM2Wh1FDZRcOT-28">
          <mxGeometry x="0.203" y="-1" relative="1" as="geometry">
            <mxPoint x="-731" y="-530" as="offset" />
          </mxGeometry>
        </mxCell>
        <mxCell id="HTyEB_lLM2Wh1FDZRcOT-32" value="" style="endArrow=diamondThin;endFill=0;endSize=24;html=1;rounded=0;fontSize=12;curved=1;entryX=1;entryY=0.5;entryDx=0;entryDy=0;" edge="1" parent="1" target="DGdbcrdZKNCwdGrq_Af2-76">
          <mxGeometry width="160" relative="1" as="geometry">
            <mxPoint x="690" y="797" as="sourcePoint" />
            <mxPoint x="710" y="844" as="targetPoint" />
          </mxGeometry>
        </mxCell>
        <mxCell id="HTyEB_lLM2Wh1FDZRcOT-34" value="1" style="edgeLabel;html=1;align=center;verticalAlign=middle;resizable=0;points=[];fontSize=16;" vertex="1" connectable="0" parent="HTyEB_lLM2Wh1FDZRcOT-32">
          <mxGeometry x="0.4413" y="-1" relative="1" as="geometry">
            <mxPoint as="offset" />
          </mxGeometry>
        </mxCell>
        <mxCell id="HTyEB_lLM2Wh1FDZRcOT-35" value="1" style="edgeLabel;html=1;align=center;verticalAlign=middle;resizable=0;points=[];fontSize=16;" vertex="1" connectable="0" parent="HTyEB_lLM2Wh1FDZRcOT-32">
          <mxGeometry x="-0.7872" relative="1" as="geometry">
            <mxPoint as="offset" />
          </mxGeometry>
        </mxCell>
        <mxCell id="HTyEB_lLM2Wh1FDZRcOT-36" value="" style="endArrow=diamondThin;endFill=1;endSize=24;html=1;rounded=0;fontSize=12;curved=1;entryX=1.019;entryY=0.219;entryDx=0;entryDy=0;entryPerimeter=0;exitX=-0.002;exitY=-0.033;exitDx=0;exitDy=0;exitPerimeter=0;" edge="1" parent="1" source="DGdbcrdZKNCwdGrq_Af2-142" target="DGdbcrdZKNCwdGrq_Af2-90">
          <mxGeometry width="160" relative="1" as="geometry">
            <mxPoint x="750" y="824" as="sourcePoint" />
            <mxPoint x="910" y="824" as="targetPoint" />
          </mxGeometry>
        </mxCell>
        <mxCell id="HTyEB_lLM2Wh1FDZRcOT-38" value="1" style="edgeLabel;html=1;align=center;verticalAlign=middle;resizable=0;points=[];fontSize=16;" vertex="1" connectable="0" parent="HTyEB_lLM2Wh1FDZRcOT-36">
          <mxGeometry x="-0.7703" relative="1" as="geometry">
            <mxPoint as="offset" />
          </mxGeometry>
        </mxCell>
        <mxCell id="HTyEB_lLM2Wh1FDZRcOT-39" value="Images" style="swimlane;fontStyle=0;align=center;verticalAlign=top;childLayout=stackLayout;horizontal=1;startSize=26;horizontalStack=0;resizeParent=1;resizeLast=0;collapsible=1;marginBottom=0;rounded=0;shadow=0;strokeWidth=1;" vertex="1" parent="1">
          <mxGeometry x="-240" y="590" width="160" height="140" as="geometry">
            <mxRectangle x="50" y="20" width="160" height="26" as="alternateBounds" />
          </mxGeometry>
        </mxCell>
        <mxCell id="HTyEB_lLM2Wh1FDZRcOT-40" value="- images_id: int" style="text;align=left;verticalAlign=top;spacingLeft=4;spacingRight=4;overflow=hidden;rotatable=0;points=[[0,0.5],[1,0.5]];portConstraint=eastwest;" vertex="1" parent="HTyEB_lLM2Wh1FDZRcOT-39">
          <mxGeometry y="26" width="160" height="26" as="geometry" />
        </mxCell>
        <mxCell id="HTyEB_lLM2Wh1FDZRcOT-41" value="- product_id: int" style="text;align=left;verticalAlign=top;spacingLeft=4;spacingRight=4;overflow=hidden;rotatable=0;points=[[0,0.5],[1,0.5]];portConstraint=eastwest;rounded=0;shadow=0;html=0;" vertex="1" parent="HTyEB_lLM2Wh1FDZRcOT-39">
          <mxGeometry y="52" width="160" height="26" as="geometry" />
        </mxCell>
        <mxCell id="HTyEB_lLM2Wh1FDZRcOT-42" value="- qty: int" style="text;align=left;verticalAlign=top;spacingLeft=4;spacingRight=4;overflow=hidden;rotatable=0;points=[[0,0.5],[1,0.5]];portConstraint=eastwest;rounded=0;shadow=0;html=0;" vertex="1" parent="HTyEB_lLM2Wh1FDZRcOT-39">
          <mxGeometry y="78" width="160" height="26" as="geometry" />
        </mxCell>
        <mxCell id="HTyEB_lLM2Wh1FDZRcOT-62" value="- ukuran : String" style="text;align=left;verticalAlign=top;spacingLeft=4;spacingRight=4;overflow=hidden;rotatable=0;points=[[0,0.5],[1,0.5]];portConstraint=eastwest;rounded=0;shadow=0;html=0;" vertex="1" parent="HTyEB_lLM2Wh1FDZRcOT-39">
          <mxGeometry y="104" width="160" height="26" as="geometry" />
        </mxCell>
        <mxCell id="HTyEB_lLM2Wh1FDZRcOT-43" value="" style="line;html=1;strokeWidth=1;align=left;verticalAlign=middle;spacingTop=-1;spacingLeft=3;spacingRight=3;rotatable=0;labelPosition=right;points=[];portConstraint=eastwest;" vertex="1" parent="HTyEB_lLM2Wh1FDZRcOT-39">
          <mxGeometry y="130" width="160" height="6" as="geometry" />
        </mxCell>
        <mxCell id="HTyEB_lLM2Wh1FDZRcOT-66" value="" style="endArrow=classic;html=1;rounded=0;fontSize=12;startSize=8;endSize=8;entryX=-0.01;entryY=0.708;entryDx=0;entryDy=0;exitX=1.015;exitY=0.795;exitDx=0;exitDy=0;exitPerimeter=0;entryPerimeter=0;" edge="1" parent="1" target="DGdbcrdZKNCwdGrq_Af2-6">
          <mxGeometry width="50" height="50" relative="1" as="geometry">
            <mxPoint x="-77.59999999999991" y="390.6700000000001" as="sourcePoint" />
            <mxPoint x="-10" y="340" as="targetPoint" />
          </mxGeometry>
        </mxCell>
        <mxCell id="HTyEB_lLM2Wh1FDZRcOT-70" value="1" style="edgeLabel;html=1;align=center;verticalAlign=middle;resizable=0;points=[];fontSize=16;" vertex="1" connectable="0" parent="HTyEB_lLM2Wh1FDZRcOT-66">
          <mxGeometry x="-0.8561" y="-1" relative="1" as="geometry">
            <mxPoint x="-5" y="-12" as="offset" />
          </mxGeometry>
        </mxCell>
        <mxCell id="HTyEB_lLM2Wh1FDZRcOT-73" value="" style="endArrow=classic;html=1;rounded=0;fontSize=12;startSize=8;endSize=8;exitX=1.002;exitY=0.071;exitDx=0;exitDy=0;exitPerimeter=0;entryX=0.002;entryY=0.76;entryDx=0;entryDy=0;entryPerimeter=0;" edge="1" parent="1" source="HTyEB_lLM2Wh1FDZRcOT-42" target="DGdbcrdZKNCwdGrq_Af2-6">
          <mxGeometry width="50" height="50" relative="1" as="geometry">
            <mxPoint x="20" y="530" as="sourcePoint" />
            <mxPoint x="80" y="390" as="targetPoint" />
            <Array as="points">
              <mxPoint x="-40" y="670" />
              <mxPoint x="-40" y="391" />
            </Array>
          </mxGeometry>
        </mxCell>
        <mxCell id="HTyEB_lLM2Wh1FDZRcOT-75" value="1" style="edgeLabel;html=1;align=center;verticalAlign=middle;resizable=0;points=[];fontSize=16;" vertex="1" connectable="0" parent="HTyEB_lLM2Wh1FDZRcOT-73">
          <mxGeometry x="-0.7706" y="2" relative="1" as="geometry">
            <mxPoint x="-18" y="1" as="offset" />
          </mxGeometry>
        </mxCell>
        <mxCell id="HTyEB_lLM2Wh1FDZRcOT-76" value="" style="endArrow=classic;html=1;rounded=0;fontSize=12;startSize=8;endSize=8;exitX=1;exitY=0.5;exitDx=0;exitDy=0;entryX=0;entryY=0.077;entryDx=0;entryDy=0;entryPerimeter=0;" edge="1" parent="1" source="DGdbcrdZKNCwdGrq_Af2-21" target="DGdbcrdZKNCwdGrq_Af2-5">
          <mxGeometry width="50" height="50" relative="1" as="geometry">
            <mxPoint x="-60" y="100" as="sourcePoint" />
            <mxPoint x="-10" y="50" as="targetPoint" />
            <Array as="points">
              <mxPoint x="-40" y="95" />
              <mxPoint x="-40" y="350" />
            </Array>
          </mxGeometry>
        </mxCell>
        <mxCell id="HTyEB_lLM2Wh1FDZRcOT-77" value="*" style="edgeLabel;html=1;align=center;verticalAlign=middle;resizable=0;points=[];fontSize=16;" vertex="1" connectable="0" parent="HTyEB_lLM2Wh1FDZRcOT-76">
          <mxGeometry x="0.8883" relative="1" as="geometry">
            <mxPoint as="offset" />
          </mxGeometry>
        </mxCell>
        <mxCell id="HTyEB_lLM2Wh1FDZRcOT-78" value="1" style="edgeLabel;html=1;align=center;verticalAlign=middle;resizable=0;points=[];fontSize=16;" vertex="1" connectable="0" parent="HTyEB_lLM2Wh1FDZRcOT-76">
          <mxGeometry x="-0.9376" relative="1" as="geometry">
            <mxPoint as="offset" />
          </mxGeometry>
        </mxCell>
        <mxCell id="HTyEB_lLM2Wh1FDZRcOT-79" value="" style="endArrow=none;html=1;rounded=0;fontSize=12;startSize=8;endSize=8;curved=1;entryX=0.5;entryY=1;entryDx=0;entryDy=0;" edge="1" parent="1" source="HTyEB_lLM2Wh1FDZRcOT-5" target="DGdbcrdZKNCwdGrq_Af2-1">
          <mxGeometry width="50" height="50" relative="1" as="geometry">
            <mxPoint x="90" y="630" as="sourcePoint" />
            <mxPoint x="170" y="540" as="targetPoint" />
          </mxGeometry>
        </mxCell>
        <mxCell id="HTyEB_lLM2Wh1FDZRcOT-80" value="" style="endArrow=diamondThin;endFill=1;endSize=24;html=1;rounded=0;fontSize=12;curved=1;entryX=0;entryY=0.5;entryDx=0;entryDy=0;exitX=1.003;exitY=0.412;exitDx=0;exitDy=0;exitPerimeter=0;" edge="1" parent="1" source="DGdbcrdZKNCwdGrq_Af2-43" target="DGdbcrdZKNCwdGrq_Af2-116">
          <mxGeometry width="160" relative="1" as="geometry">
            <mxPoint x="475" y="402" as="sourcePoint" />
            <mxPoint x="635" y="402" as="targetPoint" />
          </mxGeometry>
        </mxCell>
        <mxCell id="HTyEB_lLM2Wh1FDZRcOT-81" value="1" style="edgeLabel;html=1;align=center;verticalAlign=middle;resizable=0;points=[];fontSize=16;" vertex="1" connectable="0" parent="HTyEB_lLM2Wh1FDZRcOT-80">
          <mxGeometry x="0.6263" y="4" relative="1" as="geometry">
            <mxPoint y="-13" as="offset" />
          </mxGeometry>
        </mxCell>
        <mxCell id="HTyEB_lLM2Wh1FDZRcOT-82" value="1" style="edgeLabel;html=1;align=center;verticalAlign=middle;resizable=0;points=[];fontSize=16;" vertex="1" connectable="0" parent="HTyEB_lLM2Wh1FDZRcOT-80">
          <mxGeometry x="-0.8319" y="-1" relative="1" as="geometry">
            <mxPoint y="-18" as="offset" />
          </mxGeometry>
        </mxCell>
        <mxCell id="HTyEB_lLM2Wh1FDZRcOT-83" value="" style="endArrow=none;html=1;rounded=0;fontSize=12;startSize=8;endSize=8;curved=1;exitX=0;exitY=0.5;exitDx=0;exitDy=0;entryX=1;entryY=0.5;entryDx=0;entryDy=0;" edge="1" parent="1" source="DGdbcrdZKNCwdGrq_Af2-42" target="HTyEB_lLM2Wh1FDZRcOT-63">
          <mxGeometry width="50" height="50" relative="1" as="geometry">
            <mxPoint x="430" y="370" as="sourcePoint" />
            <mxPoint x="480" y="320" as="targetPoint" />
          </mxGeometry>
        </mxCell>
        <mxCell id="HTyEB_lLM2Wh1FDZRcOT-84" value="*" style="edgeLabel;html=1;align=center;verticalAlign=middle;resizable=0;points=[];fontSize=16;" vertex="1" connectable="0" parent="HTyEB_lLM2Wh1FDZRcOT-83">
          <mxGeometry x="0.7899" y="-1" relative="1" as="geometry">
            <mxPoint as="offset" />
          </mxGeometry>
        </mxCell>
        <mxCell id="HTyEB_lLM2Wh1FDZRcOT-85" value="1" style="edgeLabel;html=1;align=center;verticalAlign=middle;resizable=0;points=[];fontSize=16;" vertex="1" connectable="0" parent="HTyEB_lLM2Wh1FDZRcOT-83">
          <mxGeometry x="-0.8616" y="-2" relative="1" as="geometry">
            <mxPoint as="offset" />
          </mxGeometry>
        </mxCell>
        <mxCell id="HTyEB_lLM2Wh1FDZRcOT-86" value="" style="endArrow=diamondThin;endFill=1;endSize=24;html=1;rounded=0;fontSize=12;curved=1;exitX=0;exitY=0.5;exitDx=0;exitDy=0;entryX=1;entryY=0.5;entryDx=0;entryDy=0;" edge="1" parent="1" source="DGdbcrdZKNCwdGrq_Af2-64" target="DGdbcrdZKNCwdGrq_Af2-115">
          <mxGeometry width="160" relative="1" as="geometry">
            <mxPoint x="870" y="430" as="sourcePoint" />
            <mxPoint x="890" y="510" as="targetPoint" />
          </mxGeometry>
        </mxCell>
        <mxCell id="HTyEB_lLM2Wh1FDZRcOT-87" value="1" style="edgeLabel;html=1;align=center;verticalAlign=middle;resizable=0;points=[];fontSize=16;" vertex="1" connectable="0" parent="HTyEB_lLM2Wh1FDZRcOT-86">
          <mxGeometry x="0.6263" y="4" relative="1" as="geometry">
            <mxPoint x="-5" y="-27" as="offset" />
          </mxGeometry>
        </mxCell>
        <mxCell id="HTyEB_lLM2Wh1FDZRcOT-88" value="1" style="edgeLabel;html=1;align=center;verticalAlign=middle;resizable=0;points=[];fontSize=16;" vertex="1" connectable="0" parent="HTyEB_lLM2Wh1FDZRcOT-86">
          <mxGeometry x="-0.8319" y="-1" relative="1" as="geometry">
            <mxPoint y="-18" as="offset" />
          </mxGeometry>
        </mxCell>
        <mxCell id="HTyEB_lLM2Wh1FDZRcOT-90" value="inheritance" style="edgeLabel;html=1;align=center;verticalAlign=middle;resizable=0;points=[];fontSize=16;" vertex="1" connectable="0" parent="1">
          <mxGeometry x="830" y="1010.0042857142857" as="geometry" />
        </mxCell>
        <mxCell id="HTyEB_lLM2Wh1FDZRcOT-91" value="" style="endArrow=diamondThin;endFill=1;endSize=24;html=1;rounded=0;fontSize=12;curved=1;entryX=0.5;entryY=1;entryDx=0;entryDy=0;exitX=0.5;exitY=0;exitDx=0;exitDy=0;" edge="1" parent="1" source="DGdbcrdZKNCwdGrq_Af2-87" target="DGdbcrdZKNCwdGrq_Af2-109">
          <mxGeometry width="160" relative="1" as="geometry">
            <mxPoint x="320" y="650" as="sourcePoint" />
            <mxPoint x="480" y="650" as="targetPoint" />
          </mxGeometry>
        </mxCell>
        <mxCell id="HTyEB_lLM2Wh1FDZRcOT-158" value="" style="endArrow=diamondThin;html=1;rounded=0;fontSize=12;startSize=8;endSize=8;exitX=1;exitY=0.053;exitDx=0;exitDy=0;exitPerimeter=0;entryX=1.008;entryY=0.953;entryDx=0;entryDy=0;entryPerimeter=0;endFill=1;" edge="1" parent="1" source="DGdbcrdZKNCwdGrq_Af2-89" target="HTyEB_lLM2Wh1FDZRcOT-157">
          <mxGeometry width="50" height="50" relative="1" as="geometry">
            <mxPoint x="420" y="580" as="sourcePoint" />
            <mxPoint x="470" y="530" as="targetPoint" />
            <Array as="points">
              <mxPoint x="900" y="753" />
              <mxPoint x="900" y="690" />
              <mxPoint x="1240" y="690" />
              <mxPoint x="1240" y="-40" />
            </Array>
          </mxGeometry>
        </mxCell>
        <mxCell id="HTyEB_lLM2Wh1FDZRcOT-170" value="Models / requests" style="swimlane;whiteSpace=wrap;html=1;fontSize=16;" vertex="1" parent="1">
          <mxGeometry x="-295" y="-180" width="1570" height="1460" as="geometry" />
        </mxCell>
        <mxCell id="HTyEB_lLM2Wh1FDZRcOT-5" value="Riviews" style="swimlane;fontStyle=0;align=center;verticalAlign=top;childLayout=stackLayout;horizontal=1;startSize=26;horizontalStack=0;resizeParent=1;resizeLast=0;collapsible=1;marginBottom=0;rounded=0;shadow=0;strokeWidth=1;" vertex="1" parent="HTyEB_lLM2Wh1FDZRcOT-170">
          <mxGeometry x="385" y="916" width="160" height="162" as="geometry">
            <mxRectangle x="50" y="20" width="160" height="26" as="alternateBounds" />
          </mxGeometry>
        </mxCell>
        <mxCell id="HTyEB_lLM2Wh1FDZRcOT-6" value="- riview_id : Integer" style="text;align=left;verticalAlign=top;spacingLeft=4;spacingRight=4;overflow=hidden;rotatable=0;points=[[0,0.5],[1,0.5]];portConstraint=eastwest;rounded=0;shadow=0;html=0;" vertex="1" parent="HTyEB_lLM2Wh1FDZRcOT-5">
          <mxGeometry y="26" width="160" height="26" as="geometry" />
        </mxCell>
        <mxCell id="HTyEB_lLM2Wh1FDZRcOT-7" value="- product_id : Product" style="text;align=left;verticalAlign=top;spacingLeft=4;spacingRight=4;overflow=hidden;rotatable=0;points=[[0,0.5],[1,0.5]];portConstraint=eastwest;rounded=0;shadow=0;html=0;" vertex="1" parent="HTyEB_lLM2Wh1FDZRcOT-5">
          <mxGeometry y="52" width="160" height="26" as="geometry" />
        </mxCell>
        <mxCell id="HTyEB_lLM2Wh1FDZRcOT-8" value="- createAt: Timestamp" style="text;align=left;verticalAlign=top;spacingLeft=4;spacingRight=4;overflow=hidden;rotatable=0;points=[[0,0.5],[1,0.5]];portConstraint=eastwest;rounded=0;shadow=0;html=0;" vertex="1" parent="HTyEB_lLM2Wh1FDZRcOT-5">
          <mxGeometry y="78" width="160" height="26" as="geometry" />
        </mxCell>
        <mxCell id="HTyEB_lLM2Wh1FDZRcOT-9" value="" style="line;html=1;strokeWidth=1;align=left;verticalAlign=middle;spacingTop=-1;spacingLeft=3;spacingRight=3;rotatable=0;labelPosition=right;points=[];portConstraint=eastwest;" vertex="1" parent="HTyEB_lLM2Wh1FDZRcOT-5">
          <mxGeometry y="104" width="160" height="6" as="geometry" />
        </mxCell>
        <mxCell id="HTyEB_lLM2Wh1FDZRcOT-184" value="+ addRiview()" style="text;align=left;verticalAlign=top;spacingLeft=4;spacingRight=4;overflow=hidden;rotatable=0;points=[[0,0.5],[1,0.5]];portConstraint=eastwest;rounded=0;shadow=0;html=0;" vertex="1" parent="HTyEB_lLM2Wh1FDZRcOT-5">
          <mxGeometry y="110" width="160" height="26" as="geometry" />
        </mxCell>
        <mxCell id="HTyEB_lLM2Wh1FDZRcOT-185" value="+ deleteReiview()" style="text;align=left;verticalAlign=top;spacingLeft=4;spacingRight=4;overflow=hidden;rotatable=0;points=[[0,0.5],[1,0.5]];portConstraint=eastwest;rounded=0;shadow=0;html=0;" vertex="1" parent="HTyEB_lLM2Wh1FDZRcOT-5">
          <mxGeometry y="136" width="160" height="26" as="geometry" />
        </mxCell>
        <mxCell id="DGdbcrdZKNCwdGrq_Af2-98" value="Stock" style="swimlane;fontStyle=0;align=center;verticalAlign=top;childLayout=stackLayout;horizontal=1;startSize=26;horizontalStack=0;resizeParent=1;resizeLast=0;collapsible=1;marginBottom=0;rounded=0;shadow=0;strokeWidth=1;" parent="HTyEB_lLM2Wh1FDZRcOT-170" vertex="1">
          <mxGeometry x="55" y="500" width="160" height="120" as="geometry">
            <mxRectangle x="50" y="20" width="160" height="26" as="alternateBounds" />
          </mxGeometry>
        </mxCell>
        <mxCell id="DGdbcrdZKNCwdGrq_Af2-99" value="- stock_id: int" style="text;align=left;verticalAlign=top;spacingLeft=4;spacingRight=4;overflow=hidden;rotatable=0;points=[[0,0.5],[1,0.5]];portConstraint=eastwest;" parent="DGdbcrdZKNCwdGrq_Af2-98" vertex="1">
          <mxGeometry y="26" width="160" height="26" as="geometry" />
        </mxCell>
        <mxCell id="DGdbcrdZKNCwdGrq_Af2-100" value="- product_id: int" style="text;align=left;verticalAlign=top;spacingLeft=4;spacingRight=4;overflow=hidden;rotatable=0;points=[[0,0.5],[1,0.5]];portConstraint=eastwest;rounded=0;shadow=0;html=0;" parent="DGdbcrdZKNCwdGrq_Af2-98" vertex="1">
          <mxGeometry y="52" width="160" height="26" as="geometry" />
        </mxCell>
        <mxCell id="DGdbcrdZKNCwdGrq_Af2-101" value="- ukuran : String" style="text;align=left;verticalAlign=top;spacingLeft=4;spacingRight=4;overflow=hidden;rotatable=0;points=[[0,0.5],[1,0.5]];portConstraint=eastwest;rounded=0;shadow=0;html=0;" parent="DGdbcrdZKNCwdGrq_Af2-98" vertex="1">
          <mxGeometry y="78" width="160" height="26" as="geometry" />
        </mxCell>
        <mxCell id="DGdbcrdZKNCwdGrq_Af2-104" value="" style="line;html=1;strokeWidth=1;align=left;verticalAlign=middle;spacingTop=-1;spacingLeft=3;spacingRight=3;rotatable=0;labelPosition=right;points=[];portConstraint=eastwest;" parent="DGdbcrdZKNCwdGrq_Af2-98" vertex="1">
          <mxGeometry y="104" width="160" height="6" as="geometry" />
        </mxCell>
        <mxCell id="HTyEB_lLM2Wh1FDZRcOT-190" value="&lt;&lt; interface &gt;&gt;&#xa;CrudServices &lt;Models/Requests&gt;" style="swimlane;fontStyle=0;align=center;verticalAlign=top;childLayout=stackLayout;horizontal=1;startSize=40;horizontalStack=0;resizeParent=1;resizeLast=0;collapsible=1;marginBottom=0;rounded=0;shadow=0;strokeWidth=1;" vertex="1" parent="1">
          <mxGeometry x="130" y="1420" width="220" height="176" as="geometry">
            <mxRectangle x="50" y="20" width="160" height="26" as="alternateBounds" />
          </mxGeometry>
        </mxCell>
        <mxCell id="HTyEB_lLM2Wh1FDZRcOT-194" value="" style="line;html=1;strokeWidth=1;align=left;verticalAlign=middle;spacingTop=-1;spacingLeft=3;spacingRight=3;rotatable=0;labelPosition=right;points=[];portConstraint=eastwest;" vertex="1" parent="HTyEB_lLM2Wh1FDZRcOT-190">
          <mxGeometry y="40" width="220" height="6" as="geometry" />
        </mxCell>
        <mxCell id="HTyEB_lLM2Wh1FDZRcOT-195" value="+ getAll : Response" style="text;align=left;verticalAlign=top;spacingLeft=4;spacingRight=4;overflow=hidden;rotatable=0;points=[[0,0.5],[1,0.5]];portConstraint=eastwest;rounded=0;shadow=0;html=0;" vertex="1" parent="HTyEB_lLM2Wh1FDZRcOT-190">
          <mxGeometry y="46" width="220" height="26" as="geometry" />
        </mxCell>
        <mxCell id="HTyEB_lLM2Wh1FDZRcOT-196" value="+ getById(id) : Response" style="text;align=left;verticalAlign=top;spacingLeft=4;spacingRight=4;overflow=hidden;rotatable=0;points=[[0,0.5],[1,0.5]];portConstraint=eastwest;rounded=0;shadow=0;html=0;" vertex="1" parent="HTyEB_lLM2Wh1FDZRcOT-190">
          <mxGeometry y="72" width="220" height="26" as="geometry" />
        </mxCell>
        <mxCell id="HTyEB_lLM2Wh1FDZRcOT-197" value="+ deleteById(id) : Response" style="text;align=left;verticalAlign=top;spacingLeft=4;spacingRight=4;overflow=hidden;rotatable=0;points=[[0,0.5],[1,0.5]];portConstraint=eastwest;rounded=0;shadow=0;html=0;" vertex="1" parent="HTyEB_lLM2Wh1FDZRcOT-190">
          <mxGeometry y="98" width="220" height="26" as="geometry" />
        </mxCell>
        <mxCell id="HTyEB_lLM2Wh1FDZRcOT-198" value="+ updateById(id) : Response" style="text;align=left;verticalAlign=top;spacingLeft=4;spacingRight=4;overflow=hidden;rotatable=0;points=[[0,0.5],[1,0.5]];portConstraint=eastwest;rounded=0;shadow=0;html=0;" vertex="1" parent="HTyEB_lLM2Wh1FDZRcOT-190">
          <mxGeometry y="124" width="220" height="26" as="geometry" />
        </mxCell>
        <mxCell id="HTyEB_lLM2Wh1FDZRcOT-199" value="+ Add(requests) : Rensponse" style="text;align=left;verticalAlign=top;spacingLeft=4;spacingRight=4;overflow=hidden;rotatable=0;points=[[0,0.5],[1,0.5]];portConstraint=eastwest;rounded=0;shadow=0;html=0;" vertex="1" parent="HTyEB_lLM2Wh1FDZRcOT-190">
          <mxGeometry y="150" width="220" height="26" as="geometry" />
        </mxCell>
        <mxCell id="HTyEB_lLM2Wh1FDZRcOT-200" value="&lt;&lt; implement method dari semua kelas &gt;&gt;&#xa;ServiceImplements" style="swimlane;fontStyle=0;align=center;verticalAlign=top;childLayout=stackLayout;horizontal=1;startSize=40;horizontalStack=0;resizeParent=1;resizeLast=0;collapsible=1;marginBottom=0;rounded=0;shadow=0;strokeWidth=1;" vertex="1" parent="1">
          <mxGeometry x="450" y="1440" width="250" height="110" as="geometry">
            <mxRectangle x="50" y="20" width="160" height="26" as="alternateBounds" />
          </mxGeometry>
        </mxCell>
        <mxCell id="HTyEB_lLM2Wh1FDZRcOT-202" value="- DatabaseConfig" style="text;align=left;verticalAlign=top;spacingLeft=4;spacingRight=4;overflow=hidden;rotatable=0;points=[[0,0.5],[1,0.5]];portConstraint=eastwest;rounded=0;shadow=0;html=0;" vertex="1" parent="HTyEB_lLM2Wh1FDZRcOT-200">
          <mxGeometry y="40" width="250" height="26" as="geometry" />
        </mxCell>
        <mxCell id="HTyEB_lLM2Wh1FDZRcOT-225" value="- Models" style="text;align=left;verticalAlign=top;spacingLeft=4;spacingRight=4;overflow=hidden;rotatable=0;points=[[0,0.5],[1,0.5]];portConstraint=eastwest;rounded=0;shadow=0;html=0;" vertex="1" parent="HTyEB_lLM2Wh1FDZRcOT-200">
          <mxGeometry y="66" width="250" height="26" as="geometry" />
        </mxCell>
        <mxCell id="HTyEB_lLM2Wh1FDZRcOT-201" value="" style="line;html=1;strokeWidth=1;align=left;verticalAlign=middle;spacingTop=-1;spacingLeft=3;spacingRight=3;rotatable=0;labelPosition=right;points=[];portConstraint=eastwest;" vertex="1" parent="HTyEB_lLM2Wh1FDZRcOT-200">
          <mxGeometry y="92" width="250" height="6" as="geometry" />
        </mxCell>
        <mxCell id="HTyEB_lLM2Wh1FDZRcOT-207" style="edgeStyle=none;curved=1;rounded=0;orthogonalLoop=1;jettySize=auto;html=1;exitX=0.25;exitY=0;exitDx=0;exitDy=0;fontSize=12;startSize=8;endSize=8;" edge="1" parent="1" source="HTyEB_lLM2Wh1FDZRcOT-190" target="HTyEB_lLM2Wh1FDZRcOT-190">
          <mxGeometry relative="1" as="geometry" />
        </mxCell>
        <mxCell id="HTyEB_lLM2Wh1FDZRcOT-208" style="edgeStyle=none;curved=1;rounded=0;orthogonalLoop=1;jettySize=auto;html=1;exitX=0.5;exitY=0;exitDx=0;exitDy=0;fontSize=12;startSize=8;endSize=8;" edge="1" parent="1" source="HTyEB_lLM2Wh1FDZRcOT-190" target="HTyEB_lLM2Wh1FDZRcOT-190">
          <mxGeometry relative="1" as="geometry" />
        </mxCell>
        <mxCell id="HTyEB_lLM2Wh1FDZRcOT-210" value="" style="endArrow=classic;html=1;rounded=0;fontSize=12;startSize=8;endSize=8;curved=1;exitX=0.004;exitY=0.069;exitDx=0;exitDy=0;exitPerimeter=0;entryX=1.001;entryY=1.095;entryDx=0;entryDy=0;entryPerimeter=0;dashed=1;dashPattern=8 8;" edge="1" parent="1" target="HTyEB_lLM2Wh1FDZRcOT-196">
          <mxGeometry width="50" height="50" relative="1" as="geometry">
            <mxPoint x="451" y="1519.7939999999999" as="sourcePoint" />
            <mxPoint x="370" y="1340" as="targetPoint" />
          </mxGeometry>
        </mxCell>
        <mxCell id="HTyEB_lLM2Wh1FDZRcOT-216" value="Controllers" style="swimlane;fontStyle=0;align=center;verticalAlign=top;childLayout=stackLayout;horizontal=1;startSize=40;horizontalStack=0;resizeParent=1;resizeLast=0;collapsible=1;marginBottom=0;rounded=0;shadow=0;strokeWidth=1;" vertex="1" parent="1">
          <mxGeometry x="800" y="1433" width="250" height="176" as="geometry">
            <mxRectangle x="50" y="20" width="160" height="26" as="alternateBounds" />
          </mxGeometry>
        </mxCell>
        <mxCell id="HTyEB_lLM2Wh1FDZRcOT-217" value="- ServiceImplements" style="text;align=left;verticalAlign=top;spacingLeft=4;spacingRight=4;overflow=hidden;rotatable=0;points=[[0,0.5],[1,0.5]];portConstraint=eastwest;rounded=0;shadow=0;html=0;" vertex="1" parent="HTyEB_lLM2Wh1FDZRcOT-216">
          <mxGeometry y="40" width="250" height="26" as="geometry" />
        </mxCell>
        <mxCell id="HTyEB_lLM2Wh1FDZRcOT-218" value="" style="line;html=1;strokeWidth=1;align=left;verticalAlign=middle;spacingTop=-1;spacingLeft=3;spacingRight=3;rotatable=0;labelPosition=right;points=[];portConstraint=eastwest;" vertex="1" parent="HTyEB_lLM2Wh1FDZRcOT-216">
          <mxGeometry y="66" width="250" height="6" as="geometry" />
        </mxCell>
        <mxCell id="HTyEB_lLM2Wh1FDZRcOT-219" value="+ getAll()" style="text;align=left;verticalAlign=top;spacingLeft=4;spacingRight=4;overflow=hidden;rotatable=0;points=[[0,0.5],[1,0.5]];portConstraint=eastwest;rounded=0;shadow=0;html=0;" vertex="1" parent="HTyEB_lLM2Wh1FDZRcOT-216">
          <mxGeometry y="72" width="250" height="26" as="geometry" />
        </mxCell>
        <mxCell id="HTyEB_lLM2Wh1FDZRcOT-220" value="+ getById(id)" style="text;align=left;verticalAlign=top;spacingLeft=4;spacingRight=4;overflow=hidden;rotatable=0;points=[[0,0.5],[1,0.5]];portConstraint=eastwest;rounded=0;shadow=0;html=0;" vertex="1" parent="HTyEB_lLM2Wh1FDZRcOT-216">
          <mxGeometry y="98" width="250" height="26" as="geometry" />
        </mxCell>
        <mxCell id="HTyEB_lLM2Wh1FDZRcOT-221" value="+ deleteById(id)" style="text;align=left;verticalAlign=top;spacingLeft=4;spacingRight=4;overflow=hidden;rotatable=0;points=[[0,0.5],[1,0.5]];portConstraint=eastwest;rounded=0;shadow=0;html=0;" vertex="1" parent="HTyEB_lLM2Wh1FDZRcOT-216">
          <mxGeometry y="124" width="250" height="26" as="geometry" />
        </mxCell>
        <mxCell id="HTyEB_lLM2Wh1FDZRcOT-224" value="+ updateById(id) " style="text;align=left;verticalAlign=top;spacingLeft=4;spacingRight=4;overflow=hidden;rotatable=0;points=[[0,0.5],[1,0.5]];portConstraint=eastwest;rounded=0;shadow=0;html=0;" vertex="1" parent="HTyEB_lLM2Wh1FDZRcOT-216">
          <mxGeometry y="150" width="250" height="26" as="geometry" />
        </mxCell>
        <mxCell id="HTyEB_lLM2Wh1FDZRcOT-226" value="" style="endArrow=none;html=1;rounded=0;fontSize=12;startSize=8;endSize=8;curved=1;exitX=0;exitY=0.5;exitDx=0;exitDy=0;entryX=0.993;entryY=0.038;entryDx=0;entryDy=0;entryPerimeter=0;" edge="1" parent="1" source="HTyEB_lLM2Wh1FDZRcOT-219">
          <mxGeometry width="50" height="50" relative="1" as="geometry">
            <mxPoint x="490" y="1510" as="sourcePoint" />
            <mxPoint x="698.25" y="1518.9879999999994" as="targetPoint" />
          </mxGeometry>
        </mxCell>
        <mxCell id="HTyEB_lLM2Wh1FDZRcOT-237" value="" style="endArrow=none;html=1;rounded=0;fontSize=12;startSize=8;endSize=8;curved=1;" edge="1" parent="1">
          <mxGeometry width="50" height="50" relative="1" as="geometry">
            <mxPoint x="240" y="1420" as="sourcePoint" />
            <mxPoint x="240" y="1290" as="targetPoint" />
          </mxGeometry>
        </mxCell>
      </root>
    </mxGraphModel>
  </diagram>
</mxfile>
